<svg version="1.1" id="Layer_1" xmlns="http://www.w3.org/2000/svg" xmlns:xlink="http://www.w3.org/1999/xlink" x="0px" y="0px"
	 width="100%" viewBox="0 0 734 676" enable-background="new 0 0 734 676" xml:space="preserve">
<path fill="#98509F" opacity="1.000000" stroke="none" 
	d="
M540.000000,1.000000 
	C604.972046,1.000000 669.944153,1.000000 734.937317,1.000000 
	C734.937317,226.333344 734.937317,451.666687 734.937317,677.000000 
	C688.894409,677.000000 642.914185,677.000000 596.466980,676.531372 
	C595.999939,646.618652 596.031311,617.174500 595.955750,587.730652 
	C595.947327,584.432800 595.332336,581.136475 595.452881,577.728027 
	C600.471313,577.616516 605.035583,577.616516 609.477234,577.616516 
	C609.477234,557.775757 609.477234,539.019714 609.477234,520.174622 
	C597.764160,518.667053 584.633728,523.027344 576.423706,510.864349 
	C579.076599,505.901733 581.875305,501.351837 584.028748,496.514679 
	C591.687256,479.311859 594.074707,461.129211 594.045288,442.429047 
	C593.937439,373.944305 594.087219,305.459076 593.910461,236.974640 
	C593.884338,226.852921 593.196289,216.654602 591.803101,206.632309 
	C589.472290,189.864273 583.183350,174.632416 572.363770,161.326797 
	C563.841187,150.845932 553.006714,143.753922 540.905884,137.826141 
	C540.598999,129.922134 540.057739,122.455864 540.040405,114.988380 
	C539.952332,76.992424 539.999939,38.996159 540.000000,1.000000 
z"/>
<path fill="#A35791" opacity="1.000000" stroke="none" 
	d="
M163.000000,677.000000 
	C109.023727,677.000000 55.047462,677.000000 1.035597,677.000000 
	C1.035597,451.789429 1.035597,226.578857 1.035597,1.000000 
	C50.688072,1.000000 100.377060,1.000000 150.533020,1.468657 
	C151.000198,46.825768 151.000397,91.714226 150.538483,136.686157 
	C134.248154,136.788239 118.417328,136.972443 102.593292,136.724075 
	C97.876770,136.650055 96.366669,137.863495 96.372017,142.810013 
	C96.512764,273.105194 96.489594,403.400574 96.494461,533.695923 
	C96.494537,535.656067 96.494469,537.616211 96.494469,539.679077 
	C115.189545,539.679077 133.258179,539.679077 151.851471,539.679077 
	C151.851471,438.190186 151.851471,337.022400 151.851471,235.854599 
	C153.471039,238.765106 154.054611,241.787903 154.506073,244.830307 
	C157.976608,268.218353 161.421494,291.610260 164.557281,315.084961 
	C163.739548,316.557831 162.829559,317.938721 162.802307,319.336761 
	C162.563705,331.575897 162.399765,343.817993 162.378693,356.059479 
	C162.358185,367.971252 162.593063,379.883270 162.604309,391.795288 
	C162.617371,405.632660 162.483719,419.470123 162.461197,433.307587 
	C162.441803,445.220062 162.492615,457.132690 162.505829,469.045227 
	C162.519043,480.957794 162.531601,492.870331 162.530792,504.782898 
	C162.529968,516.860046 162.513535,528.937134 162.501846,541.014282 
	C162.490173,553.091431 162.466385,565.168518 162.465530,577.245667 
	C162.464691,589.158203 162.494385,601.070740 162.495102,612.983276 
	C162.495819,625.060425 162.407455,637.138000 162.490219,649.214478 
	C162.553696,658.477051 162.822510,667.738220 163.000000,677.000000 
z"/>
<path fill="#9D539A" opacity="1.000000" stroke="none" 
	d="
M539.531372,1.000000 
	C539.999939,38.996159 539.952332,76.992424 540.040405,114.988380 
	C540.057739,122.455864 540.598999,129.922134 540.521973,137.765015 
	C518.589172,130.580109 496.523163,129.199432 474.145721,133.188309 
	C448.560394,137.749023 428.213318,150.147156 415.249329,173.390564 
	C406.000702,189.972610 402.159210,207.950043 402.093628,226.639603 
	C401.837646,299.609222 401.666565,372.581543 402.109680,445.548950 
	C402.187622,458.382263 404.265503,471.467834 407.355682,483.957947 
	C412.276917,503.848694 423.348450,520.328979 441.243439,530.921509 
	C449.860260,536.022095 459.709076,539.041382 468.948639,543.420288 
	C468.598419,546.976685 468.044373,550.115417 468.039490,553.255127 
	C467.979797,591.538513 467.978760,629.822144 468.044098,668.105530 
	C468.049164,671.070862 468.666992,674.035217 469.000000,677.000000 
	C425.979095,677.000000 382.958221,677.000000 339.374664,676.592957 
	C338.541443,673.217346 338.039459,670.249023 338.035339,667.280090 
	C337.982208,629.039551 338.030487,590.798950 337.956177,552.558472 
	C337.948151,548.427551 337.333710,544.297729 337.465149,540.102234 
	C344.853577,540.037048 351.777405,540.037048 358.682587,540.037048 
	C358.682587,405.275909 358.682587,271.278961 358.682587,136.604172 
	C350.245483,136.604172 342.123047,136.604172 333.833679,136.339172 
	C330.977386,133.654465 329.189117,131.127686 332.008484,127.548508 
	C332.518188,126.901428 332.407501,125.633980 332.326752,124.674530 
	C331.736053,117.657478 330.710876,110.655579 330.527344,103.630486 
	C330.220825,91.900299 330.435425,80.156403 330.437775,68.418274 
	C330.440186,56.186737 330.383850,43.954674 330.478912,31.723820 
	C330.558533,21.481815 330.819397,11.241220 331.000000,1.000000 
	C400.354218,1.000000 469.708466,1.000000 539.531372,1.000000 
z"/>
<path fill="#A05695" opacity="1.000000" stroke="none" 
	d="
M330.531342,1.000000 
	C330.819397,11.241220 330.558533,21.481815 330.478912,31.723820 
	C330.383850,43.954674 330.440186,56.186737 330.437775,68.418274 
	C330.435425,80.156403 330.220825,91.900299 330.527344,103.630486 
	C330.710876,110.655579 331.736053,117.657478 332.326752,124.674530 
	C332.407501,125.633980 332.518188,126.901428 332.008484,127.548508 
	C329.189117,131.127686 330.977386,133.654465 333.371613,136.422821 
	C311.777069,136.771469 290.477600,136.771469 268.755493,136.771469 
	C255.261063,232.899384 241.830551,328.571899 228.400040,424.244415 
	C227.957077,424.203094 227.514114,424.161774 227.071167,424.120453 
	C213.656555,328.515686 200.241959,232.910950 186.728638,136.602676 
	C174.570541,136.602676 162.785568,136.602676 151.000595,136.602676 
	C151.000397,91.714226 151.000198,46.825768 151.000000,1.468657 
	C210.687561,1.000000 270.375122,1.000000 330.531342,1.000000 
z"/>
<path fill="#A05596" opacity="1.000000" stroke="none" 
	d="
M337.000549,540.167419 
	C337.333710,544.297729 337.948151,548.427551 337.956177,552.558472 
	C338.030487,590.798950 337.982208,629.039551 338.035339,667.280090 
	C338.039459,670.249023 338.541443,673.217346 338.906006,676.592957 
	C280.645782,677.000000 222.291550,677.000000 163.468658,677.000000 
	C162.822510,667.738220 162.553696,658.477051 162.490219,649.214478 
	C162.407455,637.138000 162.495819,625.060425 162.495102,612.983276 
	C162.494385,601.070740 162.464691,589.158203 162.465530,577.245667 
	C162.466385,565.168518 162.490173,553.091431 162.501846,541.014282 
	C162.513535,528.937134 162.529968,516.860046 162.530792,504.782898 
	C162.531601,492.870331 162.519043,480.957794 162.505829,469.045227 
	C162.492615,457.132690 162.441803,445.220062 162.461197,433.307587 
	C162.483719,419.470123 162.617371,405.632660 162.604309,391.795288 
	C162.593063,379.883270 162.358185,367.971252 162.378693,356.059479 
	C162.399765,343.817993 162.563705,331.575897 162.802307,319.336761 
	C162.829559,317.938721 163.739548,316.557831 164.679947,315.490845 
	C166.092819,322.066010 167.156036,328.306885 168.021912,334.575073 
	C170.425308,351.973114 172.595688,369.404663 175.151810,386.779816 
	C176.940689,398.939667 179.387497,411.002167 181.218979,423.156555 
	C183.053680,435.332123 184.314423,447.594147 186.148834,459.769745 
	C187.981873,471.936218 190.364960,484.019379 192.231934,496.181274 
	C194.459549,510.692657 196.394897,525.248901 198.458191,539.795166 
	C216.437225,539.795166 234.059235,539.795166 252.029587,539.795166 
	C267.327240,438.328674 282.602234,337.012665 297.877228,235.696625 
	C298.373291,235.737305 298.869354,235.777985 299.365417,235.818649 
	C299.365417,337.123749 299.365417,438.428833 299.365417,540.167419 
	C312.365814,540.167419 324.683197,540.167419 337.000549,540.167419 
z"/>
<path fill="#9B529C" opacity="1.000000" stroke="none" 
	d="
M469.468689,677.000000 
	C468.666992,674.035217 468.049164,671.070862 468.044098,668.105530 
	C467.978760,629.822144 467.979797,591.538513 468.039490,553.255127 
	C468.044373,550.115417 468.598419,546.976685 469.361145,543.416199 
	C485.041779,546.153381 500.398926,546.505554 515.732239,544.464600 
	C523.881592,543.379944 531.884888,541.198425 539.946228,539.513672 
	C540.142395,539.830383 540.370544,540.093079 540.482666,540.398315 
	C540.941528,541.647278 541.386414,542.902222 541.798157,544.167480 
	C546.854675,559.704834 557.013062,570.315552 572.826050,574.592346 
	C579.985901,576.528809 587.593933,576.808289 594.998657,577.839478 
	C595.332336,581.136475 595.947327,584.432800 595.955750,587.730652 
	C596.031311,617.174500 595.999939,646.618652 596.000000,676.531372 
	C553.979126,677.000000 511.958221,677.000000 469.468689,677.000000 
z"/>
<path fill="#FFFFFF" opacity="1.000000" stroke="none" 
	d="
M595.452820,577.728027 
	C587.593933,576.808289 579.985901,576.528809 572.826050,574.592346 
	C557.013062,570.315552 546.854675,559.704834 541.798157,544.167480 
	C541.386414,542.902222 540.941528,541.647278 540.482666,540.398315 
	C540.370544,540.093079 540.142395,539.830383 539.946228,539.513672 
	C531.884888,541.198425 523.881592,543.379944 515.732239,544.464600 
	C500.398926,546.505554 485.041779,546.153381 469.412537,542.999023 
	C459.709076,539.041382 449.860260,536.022095 441.243439,530.921509 
	C423.348450,520.328979 412.276917,503.848694 407.355682,483.957947 
	C404.265503,471.467834 402.187622,458.382263 402.109680,445.548950 
	C401.666565,372.581543 401.837646,299.609222 402.093628,226.639603 
	C402.159210,207.950043 406.000702,189.972610 415.249329,173.390564 
	C428.213318,150.147156 448.560394,137.749023 474.145721,133.188309 
	C496.523163,129.199432 518.589172,130.580109 540.529297,138.202179 
	C553.006714,143.753922 563.841187,150.845932 572.363770,161.326797 
	C583.183350,174.632416 589.472290,189.864273 591.803101,206.632309 
	C593.196289,216.654602 593.884338,226.852921 593.910461,236.974640 
	C594.087219,305.459076 593.937439,373.944305 594.045288,442.429047 
	C594.074707,461.129211 591.687256,479.311859 584.028748,496.514679 
	C581.875305,501.351837 579.076599,505.901733 576.423706,510.864349 
	C584.633728,523.027344 597.764160,518.667053 609.477234,520.174622 
	C609.477234,539.019714 609.477234,557.775757 609.477234,577.616516 
	C605.035583,577.616516 600.471313,577.616516 595.452820,577.728027 
M530.829163,402.500061 
	C530.829163,346.030273 530.846924,289.560425 530.797424,233.090698 
	C530.793152,228.268829 530.536194,223.427689 530.052979,218.630112 
	C529.252441,210.682419 526.771240,203.236038 521.194214,197.356018 
	C512.262756,187.939453 500.735504,187.836578 489.115540,189.656815 
	C479.311707,191.192566 471.981232,196.989029 469.124481,206.410324 
	C466.749908,214.241272 465.205017,222.651688 465.171356,230.813187 
	C464.875031,302.606873 464.973114,374.402313 465.053833,446.197113 
	C465.059784,451.502319 465.381134,456.890259 466.335114,462.096924 
	C470.437134,484.484589 494.011230,495.478607 514.220825,484.649475 
	C525.299500,478.713013 529.524597,468.506622 530.046082,456.941345 
	C530.848083,439.152008 530.620178,421.316193 530.829163,402.500061 
z"/>
<path fill="#FEFEFE" opacity="1.000000" stroke="none" 
	d="
M337.465149,540.102234 
	C324.683197,540.167419 312.365814,540.167419 299.365417,540.167419 
	C299.365417,438.428833 299.365417,337.123749 299.365417,235.818649 
	C298.869354,235.777985 298.373291,235.737305 297.877228,235.696625 
	C282.602234,337.012665 267.327240,438.328674 252.029587,539.795166 
	C234.059235,539.795166 216.437225,539.795166 198.458191,539.795166 
	C196.394897,525.248901 194.459549,510.692657 192.231934,496.181274 
	C190.364960,484.019379 187.981873,471.936218 186.148834,459.769745 
	C184.314423,447.594147 183.053680,435.332123 181.218979,423.156555 
	C179.387497,411.002167 176.940689,398.939667 175.151810,386.779816 
	C172.595688,369.404663 170.425308,351.973114 168.021912,334.575073 
	C167.156036,328.306885 166.092819,322.066010 164.997009,315.406799 
	C161.421494,291.610260 157.976608,268.218353 154.506073,244.830307 
	C154.054611,241.787903 153.471039,238.765106 151.851471,235.854599 
	C151.851471,337.022400 151.851471,438.190186 151.851471,539.679077 
	C133.258179,539.679077 115.189545,539.679077 96.494469,539.679077 
	C96.494469,537.616211 96.494537,535.656067 96.494461,533.695923 
	C96.489594,403.400574 96.512764,273.105194 96.372017,142.810013 
	C96.366669,137.863495 97.876770,136.650055 102.593292,136.724075 
	C118.417328,136.972443 134.248154,136.788239 150.538483,136.686157 
	C162.785568,136.602676 174.570541,136.602676 186.728638,136.602676 
	C200.241959,232.910950 213.656555,328.515686 227.071167,424.120453 
	C227.514114,424.161774 227.957077,424.203094 228.400040,424.244415 
	C241.830551,328.571899 255.261063,232.899384 268.755493,136.771469 
	C290.477600,136.771469 311.777069,136.771469 333.538574,136.687820 
	C342.123047,136.604172 350.245483,136.604172 358.682587,136.604172 
	C358.682587,271.278961 358.682587,405.275909 358.682587,540.037048 
	C351.777405,540.037048 344.853577,540.037048 337.465149,540.102234 
z"/>
<path fill="#9C539C" opacity="1.000000" stroke="none" 
	d="
M530.829224,403.000061 
	C530.620178,421.316193 530.848083,439.152008 530.046082,456.941345 
	C529.524597,468.506622 525.299500,478.713013 514.220825,484.649475 
	C494.011230,495.478607 470.437134,484.484589 466.335114,462.096924 
	C465.381134,456.890259 465.059784,451.502319 465.053833,446.197113 
	C464.973114,374.402313 464.875031,302.606873 465.171356,230.813187 
	C465.205017,222.651688 466.749908,214.241272 469.124481,206.410324 
	C471.981232,196.989029 479.311707,191.192566 489.115540,189.656815 
	C500.735504,187.836578 512.262756,187.939453 521.194214,197.356018 
	C526.771240,203.236038 529.252441,210.682419 530.052979,218.630112 
	C530.536194,223.427689 530.793152,228.268829 530.797424,233.090698 
	C530.846924,289.560425 530.829163,346.030273 530.829224,403.000061 
z"/>
</svg>